<mxfile host="app.diagrams.net" modified="2024-02-05T02:45:48.621Z" agent="Mozilla/5.0 (Windows NT 10.0; Win64; x64) AppleWebKit/537.36 (KHTML, like Gecko) Chrome/121.0.0.0 Safari/537.36" etag="lJt9wXQKh-snY7glGdN0" version="23.1.1" type="google">
  <diagram name="Page-1" id="-K9yy9LpAzxLwBDiCklg">
    <mxGraphModel grid="1" page="1" gridSize="10" guides="1" tooltips="1" connect="1" arrows="1" fold="1" pageScale="1" pageWidth="850" pageHeight="1100" math="0" shadow="0">
      <root>
        <mxCell id="0" />
        <mxCell id="1" parent="0" />
        <mxCell id="DYBAjCkYLBRbGj8Oh9fv-54" style="edgeStyle=orthogonalEdgeStyle;rounded=0;orthogonalLoop=1;jettySize=auto;html=1;endArrow=diamondThin;endFill=0;" edge="1" parent="1" source="fVKeZCsj54aVS2Uwb1Ek-9" target="DYBAjCkYLBRbGj8Oh9fv-42">
          <mxGeometry relative="1" as="geometry" />
        </mxCell>
        <mxCell id="fVKeZCsj54aVS2Uwb1Ek-9" value="&lt;p style=&quot;margin:0px;margin-top:4px;text-align:center;&quot;&gt;&lt;b&gt;Year&lt;/b&gt;&lt;/p&gt;&lt;hr size=&quot;1&quot;&gt;&lt;p style=&quot;margin:0px;margin-left:4px;&quot;&gt;+current_year: int&lt;/p&gt;&lt;p style=&quot;margin:0px;margin-left:4px;&quot;&gt;+months: TreeSet&amp;lt;Month&amp;gt;&lt;/p&gt;&lt;hr size=&quot;1&quot;&gt;&lt;p style=&quot;margin:0px;margin-left:4px;&quot;&gt;+ Year(): void&lt;/p&gt;&lt;p style=&quot;margin:0px;margin-left:4px;&quot;&gt;+ compareTo(other: Year): int&lt;/p&gt;" style="verticalAlign=top;align=left;overflow=fill;fontSize=12;fontFamily=Helvetica;html=1;whiteSpace=wrap;" vertex="1" parent="1">
          <mxGeometry x="100" y="30" width="170" height="120" as="geometry" />
        </mxCell>
        <mxCell id="DYBAjCkYLBRbGj8Oh9fv-66" style="edgeStyle=orthogonalEdgeStyle;rounded=0;orthogonalLoop=1;jettySize=auto;html=1;entryX=0.5;entryY=1;entryDx=0;entryDy=0;endArrow=diamondThin;endFill=0;" edge="1" parent="1" source="fVKeZCsj54aVS2Uwb1Ek-10" target="DYBAjCkYLBRbGj8Oh9fv-46">
          <mxGeometry relative="1" as="geometry" />
        </mxCell>
        <mxCell id="DYBAjCkYLBRbGj8Oh9fv-68" style="edgeStyle=orthogonalEdgeStyle;rounded=0;orthogonalLoop=1;jettySize=auto;html=1;entryX=0.5;entryY=1;entryDx=0;entryDy=0;endArrow=diamondThin;endFill=0;" edge="1" parent="1" source="fVKeZCsj54aVS2Uwb1Ek-10" target="DYBAjCkYLBRbGj8Oh9fv-44">
          <mxGeometry relative="1" as="geometry">
            <Array as="points">
              <mxPoint x="555" y="830" />
              <mxPoint x="555" y="830" />
            </Array>
          </mxGeometry>
        </mxCell>
        <mxCell id="DYBAjCkYLBRbGj8Oh9fv-95" style="edgeStyle=orthogonalEdgeStyle;rounded=0;orthogonalLoop=1;jettySize=auto;html=1;endArrow=diamondThin;endFill=0;" edge="1" parent="1" source="fVKeZCsj54aVS2Uwb1Ek-10" target="DYBAjCkYLBRbGj8Oh9fv-45">
          <mxGeometry relative="1" as="geometry">
            <Array as="points">
              <mxPoint x="430" y="810" />
              <mxPoint x="275" y="810" />
            </Array>
          </mxGeometry>
        </mxCell>
        <mxCell id="DYBAjCkYLBRbGj8Oh9fv-96" style="edgeStyle=orthogonalEdgeStyle;rounded=0;orthogonalLoop=1;jettySize=auto;html=1;endArrow=diamondThin;endFill=0;" edge="1" parent="1" source="fVKeZCsj54aVS2Uwb1Ek-10" target="DYBAjCkYLBRbGj8Oh9fv-43">
          <mxGeometry relative="1" as="geometry">
            <Array as="points">
              <mxPoint x="650" y="800" />
              <mxPoint x="935" y="800" />
            </Array>
          </mxGeometry>
        </mxCell>
        <mxCell id="DYBAjCkYLBRbGj8Oh9fv-98" style="edgeStyle=orthogonalEdgeStyle;rounded=0;orthogonalLoop=1;jettySize=auto;html=1;entryX=0.5;entryY=1;entryDx=0;entryDy=0;endArrow=diamondThin;endFill=0;" edge="1" parent="1" source="fVKeZCsj54aVS2Uwb1Ek-10" target="DYBAjCkYLBRbGj8Oh9fv-74">
          <mxGeometry relative="1" as="geometry" />
        </mxCell>
        <mxCell id="fVKeZCsj54aVS2Uwb1Ek-10" value="&lt;p style=&quot;margin:0px;margin-top:4px;text-align:center;&quot;&gt;&lt;b&gt;Reminder&lt;/b&gt;&lt;/p&gt;&lt;hr size=&quot;1&quot;&gt;&lt;p style=&quot;margin:0px;margin-left:4px;&quot;&gt;+message: String&lt;/p&gt;&lt;p style=&quot;margin:0px;margin-left:4px;&quot;&gt;+eventTime: Time&lt;/p&gt;&lt;p style=&quot;margin:0px;margin-left:4px;&quot;&gt;+offset: Duration&lt;/p&gt;&lt;hr size=&quot;1&quot;&gt;&lt;p style=&quot;margin:0px;margin-left:4px;&quot;&gt;+Remainder(message: String, eventTime: Time, offset: Duration)&lt;/p&gt;&lt;p style=&quot;margin:0px;margin-left:4px;&quot;&gt;+setReminders(message: String, reminder_time: Time): void&lt;/p&gt;&lt;p style=&quot;margin:0px;margin-left:4px;&quot;&gt;+dismiss(): void&lt;/p&gt;&lt;p style=&quot;margin:0px;margin-left:4px;&quot;&gt;+setOffset(offset: Duration):&amp;nbsp; void&lt;/p&gt;&lt;p style=&quot;margin:0px;margin-left:4px;&quot;&gt;+getRemainerTime(): Time&lt;/p&gt;&lt;p style=&quot;margin:0px;margin-left:4px;&quot;&gt;&lt;br&gt;&lt;/p&gt;" style="verticalAlign=top;align=left;overflow=fill;fontSize=12;fontFamily=Helvetica;html=1;whiteSpace=wrap;" vertex="1" parent="1">
          <mxGeometry x="360" y="850" width="350" height="170" as="geometry" />
        </mxCell>
        <mxCell id="DYBAjCkYLBRbGj8Oh9fv-91" style="edgeStyle=orthogonalEdgeStyle;rounded=0;orthogonalLoop=1;jettySize=auto;html=1;entryX=0.25;entryY=0;entryDx=0;entryDy=0;endArrow=block;endFill=0;exitX=0.5;exitY=0;exitDx=0;exitDy=0;" edge="1" parent="1" source="fVKeZCsj54aVS2Uwb1Ek-9" target="DYBAjCkYLBRbGj8Oh9fv-85">
          <mxGeometry relative="1" as="geometry">
            <Array as="points">
              <mxPoint x="190" y="-100" />
              <mxPoint x="1077" y="-100" />
            </Array>
          </mxGeometry>
        </mxCell>
        <mxCell id="DYBAjCkYLBRbGj8Oh9fv-42" value="&lt;p style=&quot;margin:0px;margin-top:4px;text-align:center;&quot;&gt;&lt;b&gt;Calendar&lt;/b&gt;&lt;/p&gt;&lt;hr size=&quot;1&quot;&gt;&lt;p style=&quot;margin:0px;margin-left:4px;&quot;&gt;+ Years: TreeSet&amp;lt;&amp;gt;&lt;/p&gt;&lt;hr size=&quot;1&quot;&gt;&lt;p style=&quot;margin:0px;margin-left:4px;&quot;&gt;+ Calendar(): void&lt;/p&gt;" style="verticalAlign=top;align=left;overflow=fill;fontSize=12;fontFamily=Helvetica;html=1;whiteSpace=wrap;" vertex="1" parent="1">
          <mxGeometry x="-100" y="45" width="120" height="90" as="geometry" />
        </mxCell>
        <mxCell id="DYBAjCkYLBRbGj8Oh9fv-43" value="&lt;p style=&quot;margin:0px;margin-top:4px;text-align:center;&quot;&gt;&lt;b&gt;External Event&lt;/b&gt;&lt;/p&gt;&lt;hr size=&quot;1&quot;&gt;&lt;p style=&quot;margin:0px;margin-left:4px;&quot;&gt;+external_event_name: String&lt;/p&gt;&lt;hr size=&quot;1&quot;&gt;&lt;p style=&quot;margin:0px;margin-left:4px;&quot;&gt;+ExternalEvent(external_event_name: String)&lt;/p&gt;&lt;p style=&quot;margin:0px;margin-left:4px;&quot;&gt;+link_to_external(external_event_name: String) : void&lt;/p&gt;" style="verticalAlign=top;align=left;overflow=fill;fontSize=12;fontFamily=Helvetica;html=1;whiteSpace=wrap;" vertex="1" parent="1">
          <mxGeometry x="790" y="655" width="290" height="90" as="geometry" />
        </mxCell>
        <mxCell id="DYBAjCkYLBRbGj8Oh9fv-44" value="&lt;p style=&quot;margin:0px;margin-top:4px;text-align:center;&quot;&gt;&lt;b&gt;Extracurricular&lt;/b&gt;&lt;/p&gt;&lt;hr size=&quot;1&quot;&gt;&lt;p style=&quot;margin:0px;margin-left:4px;&quot;&gt;+location: String&lt;/p&gt;&lt;p style=&quot;margin:0px;margin-left:4px;&quot;&gt;+organizer: String&lt;/p&gt;&lt;hr size=&quot;1&quot;&gt;&lt;p style=&quot;margin:0px;margin-left:4px;&quot;&gt;+Extracurricular(location: String, organizer: String)&lt;/p&gt;&lt;p style=&quot;margin:0px;margin-left:4px;&quot;&gt;+updateLocation(newLocation: String) : void&lt;/p&gt;&lt;p style=&quot;margin:0px;margin-left:4px;&quot;&gt;+updateOrganizer(newOrganizer: String): void&lt;/p&gt;" style="verticalAlign=top;align=left;overflow=fill;fontSize=12;fontFamily=Helvetica;html=1;whiteSpace=wrap;" vertex="1" parent="1">
          <mxGeometry x="400" y="655" width="310" height="120" as="geometry" />
        </mxCell>
        <mxCell id="DYBAjCkYLBRbGj8Oh9fv-97" style="edgeStyle=orthogonalEdgeStyle;rounded=0;orthogonalLoop=1;jettySize=auto;html=1;entryX=0;entryY=0.75;entryDx=0;entryDy=0;endArrow=classic;endFill=1;" edge="1" parent="1" source="DYBAjCkYLBRbGj8Oh9fv-45" target="DYBAjCkYLBRbGj8Oh9fv-47">
          <mxGeometry relative="1" as="geometry">
            <Array as="points">
              <mxPoint x="270" y="390" />
            </Array>
          </mxGeometry>
        </mxCell>
        <mxCell id="DYBAjCkYLBRbGj8Oh9fv-45" value="&lt;p style=&quot;margin:0px;margin-top:4px;text-align:center;&quot;&gt;&lt;b&gt;Non-repeating Event&lt;/b&gt;&lt;/p&gt;&lt;hr size=&quot;1&quot;&gt;&lt;p style=&quot;margin:0px;margin-left:4px;&quot;&gt;+ field: Type&lt;/p&gt;&lt;hr size=&quot;1&quot;&gt;&lt;p style=&quot;margin:0px;margin-left:4px;&quot;&gt;+ method(): Type&lt;/p&gt;" style="verticalAlign=top;align=left;overflow=fill;fontSize=12;fontFamily=Helvetica;html=1;whiteSpace=wrap;" vertex="1" parent="1">
          <mxGeometry x="210" y="660" width="130" height="100" as="geometry" />
        </mxCell>
        <mxCell id="DYBAjCkYLBRbGj8Oh9fv-61" style="edgeStyle=orthogonalEdgeStyle;rounded=0;orthogonalLoop=1;jettySize=auto;html=1;endArrow=classic;endFill=1;" edge="1" parent="1" source="DYBAjCkYLBRbGj8Oh9fv-46">
          <mxGeometry relative="1" as="geometry">
            <Array as="points">
              <mxPoint x="110" y="490" />
              <mxPoint x="635" y="490" />
            </Array>
            <mxPoint x="635" y="450" as="targetPoint" />
          </mxGeometry>
        </mxCell>
        <mxCell id="DYBAjCkYLBRbGj8Oh9fv-79" style="edgeStyle=orthogonalEdgeStyle;rounded=0;orthogonalLoop=1;jettySize=auto;html=1;entryX=0.5;entryY=0;entryDx=0;entryDy=0;endArrow=diamondThin;endFill=0;" edge="1" parent="1" source="DYBAjCkYLBRbGj8Oh9fv-46" target="DYBAjCkYLBRbGj8Oh9fv-50">
          <mxGeometry relative="1" as="geometry">
            <Array as="points">
              <mxPoint x="-170" y="590" />
              <mxPoint x="-170" y="10" />
              <mxPoint x="590" y="10" />
              <mxPoint x="590" y="30" />
            </Array>
          </mxGeometry>
        </mxCell>
        <mxCell id="DYBAjCkYLBRbGj8Oh9fv-46" value="&lt;p style=&quot;margin:0px;margin-top:4px;text-align:center;&quot;&gt;&lt;b&gt;Repeating Event&lt;/b&gt;&lt;/p&gt;&lt;hr size=&quot;1&quot;&gt;&lt;p style=&quot;margin:0px;margin-left:4px;&quot;&gt;&lt;br&gt;&lt;/p&gt;&lt;p style=&quot;margin:0px;margin-left:4px;&quot;&gt;+repeat_rate: String (ex. daily)&lt;/p&gt;&lt;p style=&quot;margin:0px;margin-left:4px;&quot;&gt;+repeatGapDay: int&lt;/p&gt;&lt;p style=&quot;margin:0px;margin-left:4px;&quot;&gt;+repeatGapMonth: int&lt;/p&gt;&lt;p style=&quot;margin:0px;margin-left:4px;&quot;&gt;+repeatGapYear: int&lt;/p&gt;&lt;p style=&quot;margin:0px;margin-left:4px;&quot;&gt;+endRepeatOn: Day&lt;/p&gt;&lt;p style=&quot;margin:0px;margin-left:4px;&quot;&gt;&lt;br&gt;&lt;/p&gt;&lt;hr size=&quot;1&quot;&gt;&lt;p style=&quot;margin:0px;margin-left:4px;&quot;&gt;+setRepeatRate(repeat_rate: String): void&lt;/p&gt;" style="verticalAlign=top;align=left;overflow=fill;fontSize=12;fontFamily=Helvetica;html=1;whiteSpace=wrap;" vertex="1" parent="1">
          <mxGeometry x="-90" y="660" width="250" height="170" as="geometry" />
        </mxCell>
        <mxCell id="DYBAjCkYLBRbGj8Oh9fv-58" style="edgeStyle=orthogonalEdgeStyle;rounded=0;orthogonalLoop=1;jettySize=auto;html=1;entryX=0.5;entryY=1;entryDx=0;entryDy=0;endArrow=diamondThin;endFill=0;" edge="1" parent="1" source="DYBAjCkYLBRbGj8Oh9fv-47" target="DYBAjCkYLBRbGj8Oh9fv-50">
          <mxGeometry relative="1" as="geometry" />
        </mxCell>
        <mxCell id="DYBAjCkYLBRbGj8Oh9fv-59" style="edgeStyle=orthogonalEdgeStyle;rounded=0;orthogonalLoop=1;jettySize=auto;html=1;entryX=1;entryY=0.5;entryDx=0;entryDy=0;endArrow=diamondThin;endFill=0;" edge="1" parent="1" source="DYBAjCkYLBRbGj8Oh9fv-47" target="DYBAjCkYLBRbGj8Oh9fv-48">
          <mxGeometry relative="1" as="geometry">
            <Array as="points">
              <mxPoint x="1010" y="300" />
              <mxPoint x="1010" y="85" />
              <mxPoint x="960" y="85" />
            </Array>
          </mxGeometry>
        </mxCell>
        <mxCell id="DYBAjCkYLBRbGj8Oh9fv-80" style="edgeStyle=orthogonalEdgeStyle;rounded=0;orthogonalLoop=1;jettySize=auto;html=1;entryX=0.5;entryY=1;entryDx=0;entryDy=0;endArrow=diamondThin;endFill=0;" edge="1" parent="1" source="DYBAjCkYLBRbGj8Oh9fv-47" target="fVKeZCsj54aVS2Uwb1Ek-9">
          <mxGeometry relative="1" as="geometry" />
        </mxCell>
        <mxCell id="DYBAjCkYLBRbGj8Oh9fv-47" value="&lt;p style=&quot;margin:0px;margin-top:4px;text-align:center;&quot;&gt;&lt;b&gt;Event&lt;/b&gt;&lt;/p&gt;&lt;hr size=&quot;1&quot;&gt;&lt;p style=&quot;margin:0px;margin-left:4px;&quot;&gt;+title: String&lt;/p&gt;&lt;p style=&quot;margin:0px;margin-left:4px;&quot;&gt;+description: String&lt;/p&gt;&lt;p style=&quot;margin:0px;margin-left:4px;&quot;&gt;+starting_time: Hour&lt;/p&gt;&lt;p style=&quot;margin:0px;margin-left:4px;&quot;&gt;+ending_time: Hour&lt;/p&gt;&lt;p style=&quot;margin:0px;margin-left:4px;&quot;&gt;+day: Day&lt;/p&gt;&lt;p style=&quot;margin:0px;margin-left:4px;&quot;&gt;+month: Month&lt;/p&gt;&lt;p style=&quot;margin:0px;margin-left:4px;&quot;&gt;+year: Year&lt;/p&gt;&lt;p style=&quot;margin:0px;margin-left:4px;&quot;&gt;&lt;br&gt;&lt;/p&gt;&lt;hr size=&quot;1&quot;&gt;&lt;p style=&quot;margin:0px;margin-left:4px;&quot;&gt;+schedule(): void&lt;/p&gt;&lt;p style=&quot;margin:0px;margin-left:4px;&quot;&gt;+reschedule(new_starting_time: Time, new_ending_time: Time): void&lt;/p&gt;&lt;p style=&quot;margin:0px;margin-left:4px;&quot;&gt;+cancel_event(): void&lt;/p&gt;&lt;p style=&quot;margin:0px;margin-left:4px;&quot;&gt;+completed: Boolean&lt;/p&gt;&lt;p style=&quot;margin:0px;margin-left:4px;&quot;&gt;&lt;br&gt;&lt;/p&gt;" style="verticalAlign=top;align=left;overflow=fill;fontSize=12;fontFamily=Helvetica;html=1;whiteSpace=wrap;" vertex="1" parent="1">
          <mxGeometry x="480" y="210" width="430" height="240" as="geometry" />
        </mxCell>
        <mxCell id="DYBAjCkYLBRbGj8Oh9fv-57" style="edgeStyle=orthogonalEdgeStyle;rounded=0;orthogonalLoop=1;jettySize=auto;html=1;entryX=1;entryY=0.5;entryDx=0;entryDy=0;endArrow=diamondThin;endFill=0;" edge="1" parent="1" source="DYBAjCkYLBRbGj8Oh9fv-48" target="DYBAjCkYLBRbGj8Oh9fv-50">
          <mxGeometry relative="1" as="geometry">
            <Array as="points">
              <mxPoint x="720" y="90" />
            </Array>
          </mxGeometry>
        </mxCell>
        <mxCell id="DYBAjCkYLBRbGj8Oh9fv-86" style="edgeStyle=orthogonalEdgeStyle;rounded=0;orthogonalLoop=1;jettySize=auto;html=1;entryX=0;entryY=0.5;entryDx=0;entryDy=0;endArrow=block;endFill=0;" edge="1" parent="1" source="DYBAjCkYLBRbGj8Oh9fv-48" target="DYBAjCkYLBRbGj8Oh9fv-85">
          <mxGeometry relative="1" as="geometry">
            <Array as="points">
              <mxPoint x="930" y="65" />
              <mxPoint x="930" y="65" />
            </Array>
          </mxGeometry>
        </mxCell>
        <mxCell id="DYBAjCkYLBRbGj8Oh9fv-48" value="&lt;p style=&quot;margin:0px;margin-top:4px;text-align:center;&quot;&gt;&lt;b&gt;Hour&lt;/b&gt;&lt;/p&gt;&lt;hr size=&quot;1&quot;&gt;&lt;p style=&quot;margin:0px;margin-left:4px;&quot;&gt;+time: int&lt;/p&gt;&lt;p style=&quot;margin:0px;margin-left:4px;&quot;&gt;+minuteModifier: double&lt;/p&gt;&lt;p style=&quot;margin:0px;margin-left:4px;&quot;&gt;+Hour(): void&lt;/p&gt;&lt;p style=&quot;margin:0px;margin-left:4px;&quot;&gt;&lt;br&gt;&lt;/p&gt;&lt;p style=&quot;margin:0px;margin-left:4px;&quot;&gt;+compareTo(other: Hour): int&lt;/p&gt;" style="verticalAlign=top;align=left;overflow=fill;fontSize=12;fontFamily=Helvetica;html=1;whiteSpace=wrap;" vertex="1" parent="1">
          <mxGeometry x="780" y="30" width="180" height="110" as="geometry" />
        </mxCell>
        <mxCell id="DYBAjCkYLBRbGj8Oh9fv-55" style="edgeStyle=orthogonalEdgeStyle;rounded=0;orthogonalLoop=1;jettySize=auto;html=1;exitX=0;exitY=0.5;exitDx=0;exitDy=0;entryX=1;entryY=0.5;entryDx=0;entryDy=0;endArrow=diamondThin;endFill=0;" edge="1" parent="1" source="DYBAjCkYLBRbGj8Oh9fv-49" target="fVKeZCsj54aVS2Uwb1Ek-9">
          <mxGeometry relative="1" as="geometry">
            <Array as="points">
              <mxPoint x="345" y="75" />
            </Array>
          </mxGeometry>
        </mxCell>
        <mxCell id="DYBAjCkYLBRbGj8Oh9fv-94" style="edgeStyle=orthogonalEdgeStyle;rounded=0;orthogonalLoop=1;jettySize=auto;html=1;entryX=0.75;entryY=0;entryDx=0;entryDy=0;endArrow=block;endFill=0;" edge="1" parent="1" source="DYBAjCkYLBRbGj8Oh9fv-49" target="DYBAjCkYLBRbGj8Oh9fv-85">
          <mxGeometry relative="1" as="geometry">
            <Array as="points">
              <mxPoint x="410" y="-70" />
              <mxPoint x="1133" y="-70" />
            </Array>
          </mxGeometry>
        </mxCell>
        <mxCell id="DYBAjCkYLBRbGj8Oh9fv-49" value="&lt;p style=&quot;margin:0px;margin-top:4px;text-align:center;&quot;&gt;&lt;b&gt;Month&lt;/b&gt;&lt;/p&gt;&lt;hr size=&quot;1&quot;&gt;&lt;p style=&quot;margin:0px;margin-left:4px;&quot;&gt;+month_name: String&lt;/p&gt;&lt;p style=&quot;margin:0px;margin-left:4px;&quot;&gt;+num_of_days: int&lt;/p&gt;&lt;p style=&quot;margin:0px;margin-left:4px;&quot;&gt;+days: TreeSet&amp;lt;Day&amp;gt;&lt;/p&gt;&lt;hr size=&quot;1&quot;&gt;&lt;p style=&quot;margin:0px;margin-left:4px;&quot;&gt;+ Month(): void&lt;/p&gt;&lt;p style=&quot;margin:0px;margin-left:4px;&quot;&gt;+compareTo(other: Month): int&lt;/p&gt;" style="verticalAlign=top;align=left;overflow=fill;fontSize=12;fontFamily=Helvetica;html=1;whiteSpace=wrap;" vertex="1" parent="1">
          <mxGeometry x="320" y="30" width="180" height="130" as="geometry" />
        </mxCell>
        <mxCell id="DYBAjCkYLBRbGj8Oh9fv-56" style="edgeStyle=orthogonalEdgeStyle;rounded=0;orthogonalLoop=1;jettySize=auto;html=1;entryX=1;entryY=0.5;entryDx=0;entryDy=0;endArrow=diamondThin;endFill=0;" edge="1" parent="1" source="DYBAjCkYLBRbGj8Oh9fv-50" target="DYBAjCkYLBRbGj8Oh9fv-49">
          <mxGeometry relative="1" as="geometry">
            <Array as="points">
              <mxPoint x="530" y="95" />
              <mxPoint x="530" y="95" />
            </Array>
          </mxGeometry>
        </mxCell>
        <mxCell id="DYBAjCkYLBRbGj8Oh9fv-87" style="edgeStyle=orthogonalEdgeStyle;rounded=0;orthogonalLoop=1;jettySize=auto;html=1;entryX=0.5;entryY=0;entryDx=0;entryDy=0;endArrow=block;endFill=0;" edge="1" parent="1" source="DYBAjCkYLBRbGj8Oh9fv-50" target="DYBAjCkYLBRbGj8Oh9fv-85">
          <mxGeometry relative="1" as="geometry">
            <Array as="points">
              <mxPoint x="640" y="10" />
              <mxPoint x="1105" y="10" />
            </Array>
          </mxGeometry>
        </mxCell>
        <mxCell id="DYBAjCkYLBRbGj8Oh9fv-50" value="&lt;p style=&quot;margin:0px;margin-top:4px;text-align:center;&quot;&gt;&lt;b&gt;Day&lt;/b&gt;&lt;/p&gt;&lt;hr size=&quot;1&quot;&gt;&lt;p style=&quot;margin:0px;margin-left:4px;&quot;&gt;+date: Date&lt;/p&gt;&lt;p style=&quot;margin:0px;margin-left:4px;&quot;&gt;+day_in_week:String&lt;/p&gt;&lt;p style=&quot;margin:0px;margin-left:4px;&quot;&gt;+hours: TreeSet&amp;lt;Hour&amp;gt;&lt;/p&gt;&lt;p style=&quot;margin:0px;margin-left:4px;&quot;&gt;&lt;br&gt;&lt;/p&gt;&lt;hr size=&quot;1&quot;&gt;&lt;p style=&quot;margin:0px;margin-left:4px;&quot;&gt;+ Day(): void&lt;/p&gt;&lt;p style=&quot;margin:0px;margin-left:4px;&quot;&gt;+compareTo(other: Day): int&lt;/p&gt;" style="verticalAlign=top;align=left;overflow=fill;fontSize=12;fontFamily=Helvetica;html=1;whiteSpace=wrap;" vertex="1" parent="1">
          <mxGeometry x="550" y="30" width="170" height="140" as="geometry" />
        </mxCell>
        <mxCell id="fVKeZCsj54aVS2Uwb1Ek-13" style="edgeStyle=none;curved=1;rounded=0;orthogonalLoop=1;jettySize=auto;html=1;exitX=0.5;exitY=1;exitDx=0;exitDy=0;fontSize=12;startSize=8;endSize=8;" edge="1" parent="1" source="DYBAjCkYLBRbGj8Oh9fv-49" target="DYBAjCkYLBRbGj8Oh9fv-49">
          <mxGeometry relative="1" as="geometry" />
        </mxCell>
        <mxCell id="DYBAjCkYLBRbGj8Oh9fv-74" value="&lt;p style=&quot;margin:0px;margin-top:4px;text-align:center;&quot;&gt;&lt;b&gt;Other&lt;/b&gt;&lt;/p&gt;&lt;hr size=&quot;1&quot;&gt;&lt;p style=&quot;margin:0px;margin-left:4px;&quot;&gt;+ field: Type&lt;/p&gt;&lt;hr size=&quot;1&quot;&gt;&lt;p style=&quot;margin:0px;margin-left:4px;&quot;&gt;+ method(): Type&lt;/p&gt;" style="verticalAlign=top;align=left;overflow=fill;fontSize=12;fontFamily=Helvetica;html=1;whiteSpace=wrap;" vertex="1" parent="1">
          <mxGeometry x="1180" y="655" width="160" height="85" as="geometry" />
        </mxCell>
        <mxCell id="DYBAjCkYLBRbGj8Oh9fv-76" style="edgeStyle=orthogonalEdgeStyle;rounded=0;orthogonalLoop=1;jettySize=auto;html=1;entryX=0.722;entryY=0.998;entryDx=0;entryDy=0;entryPerimeter=0;endArrow=classic;endFill=1;" edge="1" parent="1" source="DYBAjCkYLBRbGj8Oh9fv-74" target="DYBAjCkYLBRbGj8Oh9fv-47">
          <mxGeometry relative="1" as="geometry">
            <Array as="points">
              <mxPoint x="1250" y="520" />
              <mxPoint x="791" y="520" />
            </Array>
          </mxGeometry>
        </mxCell>
        <mxCell id="DYBAjCkYLBRbGj8Oh9fv-78" style="edgeStyle=orthogonalEdgeStyle;rounded=0;orthogonalLoop=1;jettySize=auto;html=1;endArrow=diamondThin;endFill=0;" edge="1" parent="1">
          <mxGeometry relative="1" as="geometry">
            <Array as="points">
              <mxPoint x="550" y="190" />
              <mxPoint x="410" y="190" />
            </Array>
            <mxPoint x="550" y="210" as="sourcePoint" />
            <mxPoint x="410" y="160" as="targetPoint" />
          </mxGeometry>
        </mxCell>
        <mxCell id="DYBAjCkYLBRbGj8Oh9fv-83" style="edgeStyle=orthogonalEdgeStyle;rounded=0;orthogonalLoop=1;jettySize=auto;html=1;endArrow=classic;endFill=1;" edge="1" parent="1" source="DYBAjCkYLBRbGj8Oh9fv-44">
          <mxGeometry relative="1" as="geometry">
            <mxPoint x="535" y="450" as="targetPoint" />
            <Array as="points">
              <mxPoint x="535" y="530" />
              <mxPoint x="535" y="530" />
            </Array>
          </mxGeometry>
        </mxCell>
        <mxCell id="DYBAjCkYLBRbGj8Oh9fv-84" style="edgeStyle=orthogonalEdgeStyle;rounded=0;orthogonalLoop=1;jettySize=auto;html=1;endArrow=classic;endFill=1;entryX=0.544;entryY=1;entryDx=0;entryDy=0;entryPerimeter=0;exitX=0.5;exitY=0;exitDx=0;exitDy=0;" edge="1" parent="1" source="DYBAjCkYLBRbGj8Oh9fv-43" target="DYBAjCkYLBRbGj8Oh9fv-47">
          <mxGeometry relative="1" as="geometry">
            <Array as="points">
              <mxPoint x="935" y="490" />
              <mxPoint x="714" y="490" />
            </Array>
            <mxPoint x="935" y="665" as="sourcePoint" />
            <mxPoint x="710" y="460" as="targetPoint" />
          </mxGeometry>
        </mxCell>
        <mxCell id="DYBAjCkYLBRbGj8Oh9fv-85" value="«interface»&lt;br&gt;&lt;b&gt;Comparable&lt;/b&gt;" style="html=1;whiteSpace=wrap;" vertex="1" parent="1">
          <mxGeometry x="1050" y="40" width="110" height="50" as="geometry" />
        </mxCell>
      </root>
    </mxGraphModel>
  </diagram>
</mxfile>
